<?xml version="1.0" encoding="UTF-8"?>
<!DOCTYPE svg PUBLIC "-//W3C//DTD SVG 1.1//EN" "http://www.w3.org/Graphics/SVG/1.1/DTD/svg11.dtd">
<!-- Creator: CorelDRAW X7 -->
<svg xmlns="http://www.w3.org/2000/svg" xml:space="preserve" width="60mm" height="60mm" version="1.1" style="shape-rendering:geometricPrecision; text-rendering:geometricPrecision; image-rendering:optimizeQuality; fill-rule:evenodd; clip-rule:evenodd"
viewBox="0 0 6000 6000"
 xmlns:xlink="http://www.w3.org/1999/xlink">
 <defs>
  <style type="text/css">
   <![CDATA[
    .fil0 {fill:#00A859}
    .fil1 {fill:#FEFEFE;fill-rule:nonzero}
   ]]>
  </style>
 </defs>
 <g id="Camada_x0020_1">
  <metadata id="CorelCorpID_0Corel-Layer"/>
  <polygon class="fil0" points="0,6001 6000,6001 6000,1 1181,9 -1,1191 "/>
  <path class="fil1" d="M3093 1102c537,0 999,194 1385,583 388,389 581,864 581,1423 0,555 -191,1024 -573,1408 -381,383 -844,575 -1388,575 -570,0 -1044,-197 -1421,-591 -377,-395 -566,-863 -566,-1405 0,-363 88,-697 264,-1002 175,-304 417,-546 724,-724 308,-178 639,-267 994,-267zm-11 709c-350,0 -644,122 -882,367 -239,244 -359,554 -359,932 0,420 150,752 451,996 234,192 501,287 804,287 341,0 632,-124 872,-372 241,-248 361,-553 361,-917 0,-361 -121,-667 -364,-918 -241,-250 -536,-375 -883,-375z"/>
 </g>
</svg>
